<svg xmlns="http://www.w3.org/2000/svg"  viewBox="0 0 48 48" width="480px" height="480px"><path fill="#74cccf" d="M36.669,22.219c-1.731-1.731-1.852-1.61-3.584-3.342c-2.098-2.098-2.14-5.575-0.042-7.673 c0.363-0.363,0.485-0.241,0.849-0.605c1.357-1.357,3.074-2.078,4.853-2.078s3.548,0.668,4.906,2.025 c0.251,0.251,0.2,0.301,0.451,0.552c1.558,1.558,2.396,3.54,2.396,5.582s-0.798,4.064-2.356,5.622l0.085,0.085 C42.129,24.485,38.767,24.317,36.669,22.219z"/><path fill="#1f212b" d="M40.582,24.51c-1.501,0-3.017-0.688-4.266-1.937c-0.853-0.853-1.296-1.238-1.766-1.646 c-0.462-0.401-0.94-0.817-1.818-1.695c-1.111-1.111-1.729-2.598-1.741-4.187c-0.012-1.597,0.591-3.086,1.699-4.194 c0.193-0.193,0.319-0.302,0.444-0.411c0.111-0.096,0.222-0.191,0.392-0.361c1.346-1.346,3.151-2.058,5.219-2.058 c1.991,0,3.859,0.771,5.259,2.172c0.16,0.16,0.224,0.256,0.288,0.353c0.036,0.054,0.072,0.108,0.162,0.199 c1.64,1.641,2.543,3.749,2.543,5.936c0,2.239-0.889,4.362-2.503,5.976L44.106,23C43.127,23.98,41.9,24.51,40.582,24.51z M38.746,9.021c-1.797,0-3.358,0.61-4.512,1.765c-0.193,0.193-0.319,0.302-0.444,0.411c-0.111,0.096-0.222,0.191-0.392,0.361 c-0.917,0.917-1.416,2.152-1.406,3.479c0.01,1.325,0.524,2.563,1.448,3.487c0.854,0.854,1.297,1.239,1.767,1.647 c0.462,0.401,0.939,0.816,1.817,1.694c1.961,1.96,4.635,2.171,6.399,0.405l0.39-0.344c1.402-1.403,2.187-3.274,2.187-5.247 c0-1.92-0.799-3.777-2.25-5.229c-0.161-0.16-0.225-0.257-0.289-0.353c-0.036-0.054-0.072-0.108-0.162-0.199 C42.086,9.688,40.47,9.021,38.746,9.021z"/><path fill="#fefdef" d="M36.898,20.592c-0.881-0.881-0.943-0.819-1.824-1.7c-1.068-1.068-1.089-2.837-0.021-3.905 c0.185-0.185,0.247-0.123,0.432-0.308c1.382-1.382,3.582-1.406,4.963-0.024c0.128,0.128,0.13,0.125,0.258,0.253 C41.56,15.762,41.573,16.892,41.5,18c-0.063,0.949-0.089,1.882-0.82,2.614l0.03,0.03C39.642,21.712,37.965,21.66,36.898,20.592z"/><path fill="#1f212b" d="M38.862,21.958c-0.841,0-1.664-0.359-2.318-1.013c-0.428-0.428-0.657-0.627-0.886-0.827 c-0.242-0.21-0.484-0.421-0.937-0.874c-0.618-0.618-0.958-1.444-0.958-2.327c0-0.869,0.333-1.68,0.937-2.284 c0.105-0.105,0.25-0.22,0.396-0.333c0.111-0.087,0.223-0.172,0.303-0.252c1.479-1.479,3.797-1.352,5.403,0.253l0.258,0.253 C41.928,15.423,42,16.501,42,17.532l0,0.229c-0.006,1.006-0.014,2.254-0.967,3.207l-0.056,0.071 C40.375,21.644,39.635,21.958,38.862,21.958z M37.874,13.984c-0.652,0-1.264,0.267-1.769,0.771 c-0.105,0.105-0.25,0.22-0.395,0.333c-0.111,0.087-0.224,0.172-0.304,0.252c-0.415,0.415-0.644,0.975-0.644,1.577 c0,0.616,0.236,1.191,0.665,1.62c0.428,0.428,0.657,0.627,0.886,0.827c0.242,0.21,0.484,0.421,0.937,0.874 c0.88,0.879,2.166,0.949,2.988,0.126l0.056-0.071c0.647-0.65,0.698-1.425,0.705-2.537l0-0.226c0-0.887-0.049-1.671-0.648-2.271 l-0.257-0.252C39.433,14.348,38.645,13.984,37.874,13.984z"/><path fill="#74cccf" d="M11.398,22.287c1.731-1.731,1.74-1.722,3.472-3.454c2.098-2.098,2.228-5.575,0.13-7.673 c-0.363-0.363-0.402-0.325-0.766-0.688c-1.353-1.353-3.17-1.974-4.924-2.008C7.545,8.43,5.72,8.997,4.358,10.359 c-0.297,0.303-0.164,0.434-0.461,0.737c-1.558,1.558-2.323,3.542-2.323,5.584c0,2.042,0.79,3.999,2.348,5.558l-0.038,0.038 C5.982,24.374,9.3,24.385,11.398,22.287z"/><path fill="#1f212b" d="M7.654,24.431L7.654,24.431c-1.413,0-2.777-0.586-3.843-1.652l-0.195-0.146 c-1.656-1.65-2.542-3.75-2.542-5.953c0-2.508,0.74-4.52,2.199-5.978c0.153-0.157,0.268-0.261,0.383-0.364 C3.758,10.245,3.86,10.153,4,10.01c1.321-1.321,3.151-2.046,5.158-2.046L9.32,7.965c2.048,0.04,3.918,0.804,5.268,2.154 c0.163,0.163,0.253,0.236,0.343,0.309c0.111,0.089,0.222,0.179,0.422,0.379c2.274,2.274,2.216,6.034-0.13,8.38 c-0.861,0.861-1.296,1.292-1.729,1.72c-0.438,0.433-0.872,0.863-1.743,1.733C10.597,23.795,9.142,24.431,7.654,24.431z M9.158,8.963c-1.739,0-3.318,0.621-4.447,1.75c-0.154,0.157-0.269,0.262-0.385,0.366c-0.102,0.092-0.204,0.185-0.343,0.327 c-1.286,1.286-1.909,3.01-1.909,5.274c0,1.964,0.761,3.764,2.202,5.204l0.195,0.146c0.937,0.931,2.021,1.401,3.183,1.401 c1.22,0,2.424-0.532,3.391-1.498c0.872-0.873,1.308-1.303,1.746-1.737c0.432-0.427,0.867-0.857,1.726-1.716 c1.923-1.923,1.982-5.113,0.13-6.966c-0.163-0.163-0.253-0.236-0.343-0.309c-0.111-0.089-0.222-0.179-0.422-0.379 C12.715,9.66,11.088,8.999,9.3,8.965L9.158,8.963z"/><path fill="#fefdef" d="M11.166,20.656c0.881-0.881,0.838-0.924,1.719-1.805c1.068-1.068,1.09-2.755,0.022-3.823 c-0.185-0.185-0.159-0.211-0.343-0.396c-1.382-1.382-3.769-1.486-5.04-0.002c-0.13,0.152-0.336,0.273-0.516,0.63 c-0.402,0.983-0.397,1.502-0.464,2.488c-0.071,1.05-0.062,2.069,0.756,2.887c0,0,0.008-0.008,0.008-0.008 C8.375,21.694,10.098,21.723,11.166,20.656z"/><path fill="#1f212b" d="M9.266,21.942c-0.833,0-1.621-0.313-2.231-0.884c-0.031-0.02-0.062-0.042-0.088-0.07 c-0.825-0.825-0.93-1.796-0.93-2.549c0-0.239,0.012-0.481,0.029-0.726l0.019-0.284c0.052-0.813,0.089-1.4,0.481-2.359 c0.186-0.371,0.381-0.555,0.51-0.677c0.033-0.031,0.063-0.059,0.089-0.089c0.69-0.805,1.687-1.248,2.807-1.248 c1.108,0,2.189,0.445,2.966,1.222c0.118,0.118,0.168,0.185,0.218,0.252c0.029,0.038,0.058,0.077,0.125,0.144 c0.604,0.603,0.936,1.399,0.936,2.243c0,0.857-0.34,1.669-0.958,2.287c-0.431,0.431-0.636,0.658-0.841,0.884 c-0.214,0.236-0.427,0.472-0.877,0.921C10.918,21.611,10.118,21.942,9.266,21.942z M7.588,20.212 c0.026,0.018,0.051,0.038,0.074,0.061c0.851,0.85,2.313,0.868,3.151,0.029c0.432-0.432,0.637-0.659,0.843-0.886 c0.213-0.235,0.427-0.471,0.875-0.92c0.429-0.429,0.666-0.99,0.666-1.58c0-0.576-0.229-1.122-0.643-1.536 c-0.117-0.117-0.167-0.184-0.218-0.251c-0.029-0.039-0.058-0.077-0.125-0.145c-0.59-0.59-1.414-0.929-2.259-0.929 c-0.823,0-1.551,0.319-2.048,0.899c-0.047,0.056-0.102,0.108-0.162,0.165c-0.106,0.1-0.197,0.187-0.288,0.365 c-0.313,0.771-0.341,1.21-0.392,2.008l-0.019,0.289c-0.016,0.222-0.027,0.441-0.027,0.657C7.016,19.24,7.188,19.778,7.588,20.212z"/><path fill="#74cccf" d="M29.017,39.47c-2.508,0-2.508-0.279-5.017-0.279s-2.508,0.138-5.017,0.138 c-2.232,0-4.252-0.543-6.005-1.634c-1.814-1.129-3.091-2.787-4.041-4.701c-0.918-1.849-1.759-3.865-1.546-6.087 c0,0,0.095,0.009,0.095,0.009c0.193-2.012,0.931-3.846,1.791-5.56c0.887-1.769,1.856-3.54,3.301-4.852 c1.444-1.312,3.263-2.202,5.109-2.916c1.788-0.692,3.721-0.989,5.742-0.989c0.571,0,0.571-0.323,1.142-0.323 c2.01,0,4.023,0.36,5.805,1.02c1.851,0.685,3.271,2.134,4.721,3.409c1.458,1.282,3.122,2.483,4.016,4.236 c0.862,1.689,1.244,3.693,1.438,5.705c0.04,0.515-0.213,0.529-0.191,1.046c0.097,2.134-0.265,4.15-1.227,5.908 c-0.982,1.795-2.522,3.151-4.326,4.193C33.109,38.774,31.201,39.47,29.017,39.47z"/><path fill="#1f212b" d="M24,40c-1.271,0-1.917-0.044-2.542-0.087c-0.636-0.043-1.237-0.084-2.474-0.084 c-2.338,0-4.447-0.575-6.269-1.709c-1.743-1.085-3.125-2.689-4.225-4.902c-0.944-1.901-1.479-4.662-1.503-6.294 c-0.03-2.062,0.91-3.932,1.739-5.583l0.105-0.209c0.886-1.766,1.879-3.607,3.412-4.998c1.674-1.521,3.806-2.448,5.264-3.012 C19.36,12.404,23.917,12,24.571,12c1.853,0,4.012,0.098,5.979,0.827c1.666,0.616,2.972,1.792,4.235,2.929l0.643,0.574 c0.253,0.223,0.513,0.443,0.774,0.664c1.266,1.074,2.575,2.185,3.357,3.72c0.777,1.522,1.251,3.393,1.49,5.884 c0.048,0.626-0.478,5.415-1.477,7.242c-0.943,1.725-2.462,3.201-4.515,4.387c-2.032,1.174-4.008,1.744-6.041,1.744 c-1.251,0-1.876,0.007-2.502,0.015C25.886,39.992,25.257,40,24,40z M24.571,13c-0.534,0-5.011,0.399-6.704,1.054 c-1.383,0.536-3.402,1.41-4.953,2.82c-1.405,1.275-2.346,3.024-3.19,4.706l-0.105,0.209c-0.816,1.624-1.66,3.303-1.633,5.119 c0.023,1.522,0.521,4.095,1.399,5.864c1.015,2.042,2.277,3.514,3.858,4.499c1.661,1.034,3.593,1.558,5.741,1.558 c1.271,0,1.917,0.044,2.542,0.087C22.162,38.959,22.763,39,24,39c1.251,0,1.876-0.007,2.502-0.015 c0.628-0.007,1.257-0.015,2.514-0.015c1.853,0,3.665-0.527,5.541-1.61c1.891-1.093,3.283-2.438,4.138-4 c0.902-1.649,1.388-6.261,1.358-6.676c-0.226-2.353-0.667-4.108-1.385-5.515c-0.692-1.357-1.923-2.402-3.114-3.412 c-0.266-0.225-0.529-0.449-0.787-0.676c-0.217-0.191-0.434-0.386-0.651-0.582c-1.193-1.074-2.427-2.184-3.914-2.734 C28.383,13.091,26.335,13,24.571,13z"/><g><path fill="#8a4581" d="M27.193,28.5c0,1.657-1.536,2.684-3.193,2.684s-2.889-1.028-2.889-2.684s1.232-4.832,2.889-4.832 S27.193,26.843,27.193,28.5z"/><path fill="#1f212b" d="M24,31.685c-1.995,0-3.389-1.31-3.389-3.185c0-1.831,1.32-5.332,3.389-5.332 c2.097,0,3.693,3.554,3.693,5.332C27.693,30.315,26.105,31.685,24,31.685z M24,24.168c-1.208,0-2.389,2.741-2.389,4.332 c0,1.327,0.938,2.185,2.389,2.185c1.306,0,2.693-0.766,2.693-2.185C26.693,26.994,25.267,24.168,24,24.168z"/></g><g><path fill="#1f212b" d="M32.302,28.423c-0.024,0-0.049-0.002-0.074-0.005l-3.158-0.47c-0.273-0.041-0.461-0.295-0.421-0.568 c0.041-0.273,0.296-0.454,0.568-0.421l3.158,0.47c0.273,0.041,0.461,0.295,0.421,0.568C32.759,28.245,32.545,28.423,32.302,28.423z"/></g><g><path fill="#1f212b" d="M24,34c-0.949,0-1.868-0.286-2.658-0.827c-0.228-0.156-0.286-0.467-0.13-0.695 c0.156-0.228,0.468-0.286,0.695-0.13c1.233,0.844,2.91,0.854,4.15,0.025c0.23-0.153,0.54-0.091,0.694,0.138 c0.153,0.23,0.091,0.541-0.138,0.694C25.833,33.725,24.93,34,24,34z"/></g><g><path fill="#1f212b" d="M15.252,28.423c-0.244,0-0.457-0.178-0.494-0.426c-0.041-0.273,0.148-0.528,0.421-0.568l3.158-0.47 c0.276-0.033,0.528,0.148,0.568,0.421c0.041,0.273-0.148,0.528-0.421,0.568l-3.158,0.47C15.302,28.421,15.277,28.423,15.252,28.423 z"/></g></svg>